<svg xmlns="http://www.w3.org/2000/svg" version="1.1" xmlns:xlink="http://www.w3.org/1999/xlink" xmlns:svgjs="http://svgjs.com/svgjs" width="1920" height="5000" preserveAspectRatio="none" viewBox="0 0 1920 5000"><g mask="url(&quot;#SvgjsMask1073&quot;)" fill="none"><path d="M933.8899999999999 4038.37 L921.4 4072.94L902.0279289015186 4030.037928901518z" stroke="rgba(255, 0, 208, 0.09)" stroke-width="1" stroke-dasharray="4, 4"></path><path d="M381.26 636.37 L253.82999999999998 288.94L78.05005805238778 702.1499419476122z" stroke="rgba(217, 217, 217, 0.18)" stroke-width="2.9" stroke-dasharray="3, 2"></path><path d="M272.11 3553.43L280.55 3543.8 291.8 3549.92 300.24 3540.29 311.49 3546.41 319.93 3536.78 331.18 3542.9" stroke="rgba(217, 217, 217, 0.18)" stroke-width="2.13" stroke-dasharray="3, 2"></path><path d="M1505.97 3883.56 L1092.8700000000001 3310.85L1016.2487613235535 3880.3762386764465z" fill="rgba(217, 217, 217, 0.18)"></path><rect width="673.2" height="673.2" clip-path="url(&quot;#SvgjsClipPath1074&quot;)" x="1097.5" y="134.95" fill="url(#SvgjsPattern1075)" transform="rotate(214.68, 1434.1, 471.55)"></rect><circle r="218.79507785064519" cx="1047.69" cy="4494.49" stroke="rgba(0, 9, 255, 0.09)" stroke-width="1.78" stroke-dasharray="3, 3"></circle><path d="M1705.2 2240.09 L1543.91 2259.13L1562.614082595049 2187.669082595049z" fill="rgba(0, 9, 255, 0.09)"></path><path d="M741.16 4707.81 L654.8 4687.25L748.5635309239651 4646.946469076035z" stroke="rgba(0, 9, 255, 0.09)" stroke-width="1.92" stroke-dasharray="4, 4"></path><rect width="804.32" height="804.32" clip-path="url(&quot;#SvgjsClipPath1076&quot;)" x="-5.13" y="1282.58" fill="url(#SvgjsPattern1077)" transform="rotate(75.06, 397.03, 1684.74)"></rect><rect width="806.4" height="806.4" clip-path="url(&quot;#SvgjsClipPath1078&quot;)" x="43.6" y="1158.97" fill="url(#SvgjsPattern1079)" transform="rotate(78.69, 446.8, 1562.17)"></rect><path d="M102.81 1151.63a5.6 5.6 0 1 0 8-7.84 5.6 5.6 0 1 0-8 7.84zM114.24 1140.43a5.6 5.6 0 1 0 7.99-7.84 5.6 5.6 0 1 0-7.99 7.84zM125.66 1129.22a5.6 5.6 0 1 0 7.99-7.84 5.6 5.6 0 1 0-7.99 7.84zM137.08 1118.02a5.6 5.6 0 1 0 8-7.84 5.6 5.6 0 1 0-8 7.84z" stroke="rgba(217, 217, 217, 0.18)" stroke-width="1.68"></path><rect width="1181.88" height="1181.88" clip-path="url(&quot;#SvgjsClipPath1080&quot;)" x="189.16" y="4217.36" fill="url(#SvgjsPattern1081)" transform="rotate(68.11, 780.1, 4808.3)"></rect></g><defs><mask id="SvgjsMask1073"><rect width="1920" height="5000" fill="#ffffff"></rect></mask><pattern x="0" y="0" width="11.22" height="11.22" patternUnits="userSpaceOnUse" id="SvgjsPattern1075"><path d="M0 11.22L5.61 0L11.22 11.22" stroke="rgba(255, 0, 208, 0.09)" fill="none"></path></pattern><clipPath id="SvgjsClipPath1074"><circle r="168.3" cx="1434.1" cy="471.55"></circle></clipPath><pattern x="0" y="0" width="9.14" height="9.14" patternUnits="userSpaceOnUse" id="SvgjsPattern1077"><path d="M0 9.14L4.57 0L9.14 9.14" stroke="rgba(255, 0, 208, 0.09)" fill="none"></path></pattern><clipPath id="SvgjsClipPath1076"><circle r="201.08" cx="397.03" cy="1684.74"></circle></clipPath><pattern x="0" y="0" width="806.4" height="7.2" patternUnits="userSpaceOnUse" id="SvgjsPattern1079"><rect width="806.4" height="3.6" x="0" y="0" fill="rgba(217, 217, 217, 0.18)"></rect><rect width="806.4" height="3.6" x="0" y="3.6" fill="rgba(0, 0, 0, 0)"></rect></pattern><clipPath id="SvgjsClipPath1078"><circle r="201.6" cx="446.8" cy="1562.17"></circle></clipPath><pattern x="0" y="0" width="1181.88" height="12.06" patternUnits="userSpaceOnUse" id="SvgjsPattern1081"><rect width="1181.88" height="6.03" x="0" y="0" fill="rgba(255, 0, 208, 0.09)"></rect><rect width="1181.88" height="6.03" x="0" y="6.03" fill="rgba(0, 0, 0, 0)"></rect></pattern><clipPath id="SvgjsClipPath1080"><circle r="295.47" cx="780.1" cy="4808.3"></circle></clipPath></defs></svg>